<mxfile host="app.diagrams.net" modified="2023-06-27T17:40:10.853Z" agent="Mozilla/5.0 (Windows NT 10.0; WOW64) AppleWebKit/537.36 (KHTML, like Gecko) Chrome/94.0.4606.71 Safari/537.36 Core/1.94.200.400 QQBrowser/11.8.5310.400" etag="rFS0mtF-0L3a80-g06Cg" version="21.5.1" type="device">
  <diagram name="第 1 页" id="PJ5TzesjvqQUZr8FRrez">
    <mxGraphModel dx="2074" dy="1139" grid="0" gridSize="10" guides="0" tooltips="1" connect="1" arrows="1" fold="1" page="0" pageScale="1" pageWidth="827" pageHeight="1169" math="0" shadow="0">
      <root>
        <mxCell id="0" />
        <mxCell id="1" parent="0" />
        <mxCell id="XP47d1aaWG6cvXOFJUga-1" value="U" style="rounded=0;whiteSpace=wrap;html=1;fillColor=#dae8fc;strokeColor=#6c8ebf;fontSize=13;" vertex="1" parent="1">
          <mxGeometry x="92" y="180" width="90" height="60" as="geometry" />
        </mxCell>
        <mxCell id="XP47d1aaWG6cvXOFJUga-2" value="Trait Borrow&amp;lt;&lt;b style=&quot;font-size: 13px;&quot;&gt;&lt;font color=&quot;#ff0000&quot; style=&quot;font-size: 13px;&quot;&gt;T&lt;/font&gt;&lt;/b&gt;&amp;gt;" style="rounded=0;whiteSpace=wrap;html=1;fillColor=#d5e8d4;strokeColor=#82b366;fontSize=13;" vertex="1" parent="1">
          <mxGeometry x="244.5" y="70" width="120" height="60" as="geometry" />
        </mxCell>
        <mxCell id="XP47d1aaWG6cvXOFJUga-3" value="borrow(&amp;amp;U) -&amp;gt; &amp;amp;&lt;font color=&quot;#ff0000&quot; style=&quot;font-size: 13px;&quot;&gt;&lt;b style=&quot;font-size: 13px;&quot;&gt;T&lt;/b&gt;&lt;/font&gt;" style="rounded=1;whiteSpace=wrap;html=1;fontSize=13;" vertex="1" parent="1">
          <mxGeometry x="244.5" y="180" width="120" height="60" as="geometry" />
        </mxCell>
        <mxCell id="XP47d1aaWG6cvXOFJUga-5" value="" style="endArrow=classic;html=1;rounded=0;exitX=0;exitY=1;exitDx=0;exitDy=0;entryX=1;entryY=0;entryDx=0;entryDy=0;fontSize=13;" edge="1" parent="1" source="XP47d1aaWG6cvXOFJUga-2" target="XP47d1aaWG6cvXOFJUga-1">
          <mxGeometry width="50" height="50" relative="1" as="geometry">
            <mxPoint x="322" y="570" as="sourcePoint" />
            <mxPoint x="372" y="520" as="targetPoint" />
          </mxGeometry>
        </mxCell>
        <mxCell id="XP47d1aaWG6cvXOFJUga-7" value="实现" style="edgeLabel;html=1;align=center;verticalAlign=middle;resizable=0;points=[];fontSize=13;" vertex="1" connectable="0" parent="XP47d1aaWG6cvXOFJUga-5">
          <mxGeometry x="-0.1692" y="-1" relative="1" as="geometry">
            <mxPoint as="offset" />
          </mxGeometry>
        </mxCell>
        <mxCell id="XP47d1aaWG6cvXOFJUga-6" value="" style="endArrow=classic;html=1;rounded=0;exitX=1;exitY=0.5;exitDx=0;exitDy=0;entryX=0;entryY=0.5;entryDx=0;entryDy=0;fontSize=13;" edge="1" parent="1" source="XP47d1aaWG6cvXOFJUga-1" target="XP47d1aaWG6cvXOFJUga-3">
          <mxGeometry width="50" height="50" relative="1" as="geometry">
            <mxPoint x="322" y="570" as="sourcePoint" />
            <mxPoint x="372" y="520" as="targetPoint" />
          </mxGeometry>
        </mxCell>
        <mxCell id="XP47d1aaWG6cvXOFJUga-8" value="&amp;amp;&lt;font color=&quot;#ff0000&quot; style=&quot;font-size: 13px;&quot;&gt;&lt;b style=&quot;font-size: 13px;&quot;&gt;T&lt;/b&gt;&lt;/font&gt;" style="rounded=0;whiteSpace=wrap;html=1;fillColor=#fff2cc;strokeColor=#d6b656;fontSize=13;" vertex="1" parent="1">
          <mxGeometry x="422" y="180" width="100" height="60" as="geometry" />
        </mxCell>
        <mxCell id="XP47d1aaWG6cvXOFJUga-9" value="" style="endArrow=classic;html=1;rounded=0;exitX=1;exitY=0.5;exitDx=0;exitDy=0;entryX=0;entryY=0.5;entryDx=0;entryDy=0;fontSize=13;" edge="1" parent="1" source="XP47d1aaWG6cvXOFJUga-3" target="XP47d1aaWG6cvXOFJUga-8">
          <mxGeometry width="50" height="50" relative="1" as="geometry">
            <mxPoint x="322" y="570" as="sourcePoint" />
            <mxPoint x="372" y="520" as="targetPoint" />
          </mxGeometry>
        </mxCell>
        <mxCell id="XP47d1aaWG6cvXOFJUga-10" value="" style="endArrow=none;dashed=1;html=1;dashPattern=1 3;strokeWidth=2;rounded=0;entryX=0.5;entryY=1;entryDx=0;entryDy=0;fontSize=13;" edge="1" parent="1" source="XP47d1aaWG6cvXOFJUga-3" target="XP47d1aaWG6cvXOFJUga-2">
          <mxGeometry width="50" height="50" relative="1" as="geometry">
            <mxPoint x="322" y="570" as="sourcePoint" />
            <mxPoint x="372" y="520" as="targetPoint" />
          </mxGeometry>
        </mxCell>
        <mxCell id="XP47d1aaWG6cvXOFJUga-11" value="required method" style="edgeLabel;html=1;align=center;verticalAlign=middle;resizable=0;points=[];fontSize=13;" vertex="1" connectable="0" parent="XP47d1aaWG6cvXOFJUga-10">
          <mxGeometry x="0.0286" y="-1" relative="1" as="geometry">
            <mxPoint as="offset" />
          </mxGeometry>
        </mxCell>
        <mxCell id="XP47d1aaWG6cvXOFJUga-13" value="" style="endArrow=classic;html=1;rounded=0;exitX=0.5;exitY=1;exitDx=0;exitDy=0;entryX=0.5;entryY=1;entryDx=0;entryDy=0;dashed=1;fontSize=13;" edge="1" parent="1" source="XP47d1aaWG6cvXOFJUga-1" target="XP47d1aaWG6cvXOFJUga-8">
          <mxGeometry width="50" height="50" relative="1" as="geometry">
            <mxPoint x="322" y="570" as="sourcePoint" />
            <mxPoint x="372" y="520" as="targetPoint" />
            <Array as="points">
              <mxPoint x="202" y="290" />
              <mxPoint x="382" y="290" />
            </Array>
          </mxGeometry>
        </mxCell>
        <mxCell id="XP47d1aaWG6cvXOFJUga-15" value="获取底层数据其它形式的引用" style="edgeLabel;html=1;align=center;verticalAlign=middle;resizable=0;points=[];fontSize=13;" vertex="1" connectable="0" parent="XP47d1aaWG6cvXOFJUga-13">
          <mxGeometry x="0.038" y="-4" relative="1" as="geometry">
            <mxPoint x="-11" y="-4" as="offset" />
          </mxGeometry>
        </mxCell>
        <mxCell id="XP47d1aaWG6cvXOFJUga-14" value="&lt;font color=&quot;#cc00cc&quot; style=&quot;font-size: 13px;&quot;&gt;&amp;amp;U -&amp;gt; &amp;amp;T&lt;/font&gt;" style="text;html=1;align=center;verticalAlign=middle;resizable=0;points=[];autosize=1;strokeColor=none;fillColor=none;fontSize=13;" vertex="1" parent="1">
          <mxGeometry x="261" y="252" width="72" height="27" as="geometry" />
        </mxCell>
        <mxCell id="XP47d1aaWG6cvXOFJUga-16" value="T" style="rounded=0;whiteSpace=wrap;html=1;fillColor=#fff2cc;strokeColor=#d6b656;fontSize=13;" vertex="1" parent="1">
          <mxGeometry x="92" y="490" width="90" height="60" as="geometry" />
        </mxCell>
        <mxCell id="XP47d1aaWG6cvXOFJUga-17" value="Trait&amp;nbsp;ToOwned&amp;lt;&lt;font color=&quot;#ff0000&quot; style=&quot;font-size: 13px;&quot;&gt;&lt;b style=&quot;font-size: 13px;&quot;&gt;Owned:&amp;nbsp;Borrow&amp;lt;Self&amp;gt;&lt;/b&gt;&lt;/font&gt;&amp;gt;" style="rounded=0;whiteSpace=wrap;html=1;fillColor=#d5e8d4;strokeColor=#82b366;fontSize=13;" vertex="1" parent="1">
          <mxGeometry x="182" y="380" width="255" height="60" as="geometry" />
        </mxCell>
        <mxCell id="XP47d1aaWG6cvXOFJUga-18" value="to_owned(&amp;amp;T) -&amp;gt; U" style="rounded=1;whiteSpace=wrap;html=1;fontSize=13;" vertex="1" parent="1">
          <mxGeometry x="249.5" y="490" width="120" height="60" as="geometry" />
        </mxCell>
        <mxCell id="XP47d1aaWG6cvXOFJUga-19" value="" style="endArrow=classic;html=1;rounded=0;exitX=0;exitY=1;exitDx=0;exitDy=0;entryX=1;entryY=0;entryDx=0;entryDy=0;fontSize=13;" edge="1" parent="1" source="XP47d1aaWG6cvXOFJUga-17" target="XP47d1aaWG6cvXOFJUga-16">
          <mxGeometry width="50" height="50" relative="1" as="geometry">
            <mxPoint x="322" y="880" as="sourcePoint" />
            <mxPoint x="372" y="830" as="targetPoint" />
          </mxGeometry>
        </mxCell>
        <mxCell id="XP47d1aaWG6cvXOFJUga-20" value="实现" style="edgeLabel;html=1;align=center;verticalAlign=middle;resizable=0;points=[];fontSize=13;" vertex="1" connectable="0" parent="XP47d1aaWG6cvXOFJUga-19">
          <mxGeometry x="-0.1692" y="-1" relative="1" as="geometry">
            <mxPoint as="offset" />
          </mxGeometry>
        </mxCell>
        <mxCell id="XP47d1aaWG6cvXOFJUga-21" value="" style="endArrow=classic;html=1;rounded=0;exitX=1;exitY=0.5;exitDx=0;exitDy=0;entryX=0;entryY=0.5;entryDx=0;entryDy=0;fontSize=13;" edge="1" parent="1" source="XP47d1aaWG6cvXOFJUga-16" target="XP47d1aaWG6cvXOFJUga-18">
          <mxGeometry width="50" height="50" relative="1" as="geometry">
            <mxPoint x="322" y="880" as="sourcePoint" />
            <mxPoint x="372" y="830" as="targetPoint" />
          </mxGeometry>
        </mxCell>
        <mxCell id="XP47d1aaWG6cvXOFJUga-22" value="U" style="rounded=0;whiteSpace=wrap;html=1;fillColor=#dae8fc;strokeColor=#6c8ebf;fontSize=13;" vertex="1" parent="1">
          <mxGeometry x="422" y="490" width="100" height="60" as="geometry" />
        </mxCell>
        <mxCell id="XP47d1aaWG6cvXOFJUga-23" value="" style="endArrow=classic;html=1;rounded=0;exitX=1;exitY=0.5;exitDx=0;exitDy=0;entryX=0;entryY=0.5;entryDx=0;entryDy=0;fontSize=13;" edge="1" parent="1" source="XP47d1aaWG6cvXOFJUga-18" target="XP47d1aaWG6cvXOFJUga-22">
          <mxGeometry width="50" height="50" relative="1" as="geometry">
            <mxPoint x="322" y="880" as="sourcePoint" />
            <mxPoint x="372" y="830" as="targetPoint" />
          </mxGeometry>
        </mxCell>
        <mxCell id="XP47d1aaWG6cvXOFJUga-24" value="" style="endArrow=none;dashed=1;html=1;dashPattern=1 3;strokeWidth=2;rounded=0;entryX=0.5;entryY=1;entryDx=0;entryDy=0;fontSize=13;" edge="1" parent="1" source="XP47d1aaWG6cvXOFJUga-18" target="XP47d1aaWG6cvXOFJUga-17">
          <mxGeometry width="50" height="50" relative="1" as="geometry">
            <mxPoint x="322" y="880" as="sourcePoint" />
            <mxPoint x="372" y="830" as="targetPoint" />
          </mxGeometry>
        </mxCell>
        <mxCell id="XP47d1aaWG6cvXOFJUga-25" value="required method" style="edgeLabel;html=1;align=center;verticalAlign=middle;resizable=0;points=[];fontSize=13;" vertex="1" connectable="0" parent="XP47d1aaWG6cvXOFJUga-24">
          <mxGeometry x="0.0286" y="-1" relative="1" as="geometry">
            <mxPoint as="offset" />
          </mxGeometry>
        </mxCell>
        <mxCell id="XP47d1aaWG6cvXOFJUga-26" value="" style="endArrow=classic;html=1;rounded=0;exitX=0.5;exitY=1;exitDx=0;exitDy=0;entryX=0.5;entryY=1;entryDx=0;entryDy=0;dashed=1;fontSize=13;" edge="1" parent="1" source="XP47d1aaWG6cvXOFJUga-16" target="XP47d1aaWG6cvXOFJUga-22">
          <mxGeometry width="50" height="50" relative="1" as="geometry">
            <mxPoint x="322" y="880" as="sourcePoint" />
            <mxPoint x="372" y="830" as="targetPoint" />
            <Array as="points">
              <mxPoint x="202" y="600" />
              <mxPoint x="382" y="600" />
            </Array>
          </mxGeometry>
        </mxCell>
        <mxCell id="XP47d1aaWG6cvXOFJUga-27" value="克隆引用指向的数据创建所有权" style="edgeLabel;html=1;align=center;verticalAlign=middle;resizable=0;points=[];fontSize=13;" vertex="1" connectable="0" parent="XP47d1aaWG6cvXOFJUga-26">
          <mxGeometry x="0.038" y="-4" relative="1" as="geometry">
            <mxPoint x="2" y="-4" as="offset" />
          </mxGeometry>
        </mxCell>
        <mxCell id="XP47d1aaWG6cvXOFJUga-28" value="&lt;font color=&quot;#cc00cc&quot; style=&quot;font-size: 13px;&quot;&gt;&amp;amp;T -&amp;gt; U&lt;/font&gt;" style="text;html=1;align=center;verticalAlign=middle;resizable=0;points=[];autosize=1;strokeColor=none;fillColor=none;fontSize=13;" vertex="1" parent="1">
          <mxGeometry x="266" y="562" width="63" height="27" as="geometry" />
        </mxCell>
        <mxCell id="XP47d1aaWG6cvXOFJUga-30" value="" style="endArrow=classic;html=1;rounded=0;exitX=0.1;exitY=0.5;exitDx=0;exitDy=0;exitPerimeter=0;strokeColor=#CC00CC;fontSize=13;" edge="1" parent="1" source="XP47d1aaWG6cvXOFJUga-32">
          <mxGeometry width="50" height="50" relative="1" as="geometry">
            <mxPoint x="332" y="610" as="sourcePoint" />
            <mxPoint x="140" y="240" as="targetPoint" />
            <Array as="points">
              <mxPoint x="342" y="340" />
              <mxPoint x="140" y="340" />
            </Array>
          </mxGeometry>
        </mxCell>
        <mxCell id="XP47d1aaWG6cvXOFJUga-31" value="实现 Borrow&amp;lt;T&amp;gt;" style="edgeLabel;html=1;align=center;verticalAlign=middle;resizable=0;points=[];fontSize=13;" vertex="1" connectable="0" parent="XP47d1aaWG6cvXOFJUga-30">
          <mxGeometry x="-0.1351" y="-3" relative="1" as="geometry">
            <mxPoint as="offset" />
          </mxGeometry>
        </mxCell>
        <mxCell id="XP47d1aaWG6cvXOFJUga-32" value="" style="shape=curlyBracket;whiteSpace=wrap;html=1;rounded=1;flipH=1;labelPosition=right;verticalLabelPosition=middle;align=left;verticalAlign=middle;rotation=-90;strokeColor=#CC00CC;fontSize=13;" vertex="1" parent="1">
          <mxGeometry x="332" y="330" width="20" height="120" as="geometry" />
        </mxCell>
        <mxCell id="XP47d1aaWG6cvXOFJUga-33" value="Cow&amp;lt;&#39;a, T&amp;gt;" style="rounded=0;whiteSpace=wrap;html=1;fillColor=#d5e8d4;strokeColor=#82b366;fontSize=13;" vertex="1" parent="1">
          <mxGeometry x="550" y="330" width="100" height="60" as="geometry" />
        </mxCell>
        <mxCell id="XP47d1aaWG6cvXOFJUga-36" value="Borrowd(&amp;amp;&#39;a T)" style="rounded=1;whiteSpace=wrap;html=1;fontSize=13;" vertex="1" parent="1">
          <mxGeometry x="692" y="330" width="130" height="60" as="geometry" />
        </mxCell>
        <mxCell id="XP47d1aaWG6cvXOFJUga-37" value="Owned(U)" style="rounded=1;whiteSpace=wrap;html=1;fontSize=13;" vertex="1" parent="1">
          <mxGeometry x="894" y="330" width="128" height="60" as="geometry" />
        </mxCell>
        <mxCell id="XP47d1aaWG6cvXOFJUga-38" value="to_mut(&amp;amp;Self) -&amp;gt; U" style="rounded=0;whiteSpace=wrap;html=1;strokeColor=#336600;fontSize=13;" vertex="1" parent="1">
          <mxGeometry x="692" y="180" width="130" height="60" as="geometry" />
        </mxCell>
        <mxCell id="XP47d1aaWG6cvXOFJUga-39" value="into_owned(Self) -&amp;gt; U" style="rounded=0;whiteSpace=wrap;html=1;fontSize=13;" vertex="1" parent="1">
          <mxGeometry x="692" y="480" width="130" height="60" as="geometry" />
        </mxCell>
        <mxCell id="XP47d1aaWG6cvXOFJUga-40" value="" style="endArrow=classic;html=1;rounded=0;exitX=1;exitY=0.5;exitDx=0;exitDy=0;entryX=0;entryY=0.5;entryDx=0;entryDy=0;fontSize=13;" edge="1" parent="1" source="XP47d1aaWG6cvXOFJUga-33" target="XP47d1aaWG6cvXOFJUga-36">
          <mxGeometry width="50" height="50" relative="1" as="geometry">
            <mxPoint x="560" y="625" as="sourcePoint" />
            <mxPoint x="610" y="575" as="targetPoint" />
          </mxGeometry>
        </mxCell>
        <mxCell id="XP47d1aaWG6cvXOFJUga-41" value="创建" style="edgeLabel;html=1;align=center;verticalAlign=middle;resizable=0;points=[];fontSize=13;" vertex="1" connectable="0" parent="XP47d1aaWG6cvXOFJUga-40">
          <mxGeometry x="-0.0333" y="4" relative="1" as="geometry">
            <mxPoint as="offset" />
          </mxGeometry>
        </mxCell>
        <mxCell id="XP47d1aaWG6cvXOFJUga-42" value="" style="endArrow=classic;html=1;rounded=0;exitX=0.5;exitY=0;exitDx=0;exitDy=0;entryX=0.5;entryY=1;entryDx=0;entryDy=0;strokeColor=#009900;fontSize=13;" edge="1" parent="1" source="XP47d1aaWG6cvXOFJUga-36" target="XP47d1aaWG6cvXOFJUga-38">
          <mxGeometry width="50" height="50" relative="1" as="geometry">
            <mxPoint x="552" y="610" as="sourcePoint" />
            <mxPoint x="602" y="560" as="targetPoint" />
          </mxGeometry>
        </mxCell>
        <mxCell id="XP47d1aaWG6cvXOFJUga-43" value="" style="endArrow=classic;html=1;rounded=0;exitX=0.5;exitY=1;exitDx=0;exitDy=0;entryX=0.5;entryY=0;entryDx=0;entryDy=0;strokeColor=#990000;fontSize=13;" edge="1" parent="1" source="XP47d1aaWG6cvXOFJUga-36" target="XP47d1aaWG6cvXOFJUga-39">
          <mxGeometry width="50" height="50" relative="1" as="geometry">
            <mxPoint x="552" y="610" as="sourcePoint" />
            <mxPoint x="602" y="560" as="targetPoint" />
          </mxGeometry>
        </mxCell>
        <mxCell id="XP47d1aaWG6cvXOFJUga-44" value="" style="endArrow=classic;html=1;rounded=0;exitX=1;exitY=1;exitDx=0;exitDy=0;entryX=0;entryY=0;entryDx=0;entryDy=0;strokeColor=#009900;fontSize=13;" edge="1" parent="1" source="XP47d1aaWG6cvXOFJUga-38" target="XP47d1aaWG6cvXOFJUga-37">
          <mxGeometry width="50" height="50" relative="1" as="geometry">
            <mxPoint x="552" y="610" as="sourcePoint" />
            <mxPoint x="602" y="560" as="targetPoint" />
          </mxGeometry>
        </mxCell>
        <mxCell id="XP47d1aaWG6cvXOFJUga-55" value="复制" style="edgeLabel;html=1;align=center;verticalAlign=middle;resizable=0;points=[];fontSize=13;" vertex="1" connectable="0" parent="XP47d1aaWG6cvXOFJUga-44">
          <mxGeometry x="0.0875" y="-2" relative="1" as="geometry">
            <mxPoint as="offset" />
          </mxGeometry>
        </mxCell>
        <mxCell id="XP47d1aaWG6cvXOFJUga-45" value="" style="endArrow=classic;html=1;rounded=0;exitX=1;exitY=0;exitDx=0;exitDy=0;entryX=0;entryY=1;entryDx=0;entryDy=0;strokeColor=#990000;fontSize=13;" edge="1" parent="1" source="XP47d1aaWG6cvXOFJUga-39" target="XP47d1aaWG6cvXOFJUga-37">
          <mxGeometry width="50" height="50" relative="1" as="geometry">
            <mxPoint x="552" y="610" as="sourcePoint" />
            <mxPoint x="602" y="560" as="targetPoint" />
          </mxGeometry>
        </mxCell>
        <mxCell id="XP47d1aaWG6cvXOFJUga-56" value="复制" style="edgeLabel;html=1;align=center;verticalAlign=middle;resizable=0;points=[];fontSize=13;" vertex="1" connectable="0" parent="XP47d1aaWG6cvXOFJUga-45">
          <mxGeometry x="-0.0838" relative="1" as="geometry">
            <mxPoint x="1" as="offset" />
          </mxGeometry>
        </mxCell>
        <mxCell id="XP47d1aaWG6cvXOFJUga-46" value="可变借用 &amp;amp;mut U" style="rounded=0;whiteSpace=wrap;html=1;strokeColor=#6c8ebf;fillColor=#dae8fc;fontSize=13;" vertex="1" parent="1">
          <mxGeometry x="894" y="180" width="128" height="60" as="geometry" />
        </mxCell>
        <mxCell id="XP47d1aaWG6cvXOFJUga-47" value="全新的 U" style="rounded=0;whiteSpace=wrap;html=1;fillColor=#dae8fc;strokeColor=#6c8ebf;fontSize=13;" vertex="1" parent="1">
          <mxGeometry x="894" y="480" width="128" height="60" as="geometry" />
        </mxCell>
        <mxCell id="XP47d1aaWG6cvXOFJUga-48" value="" style="endArrow=classic;html=1;rounded=0;exitX=0.5;exitY=1;exitDx=0;exitDy=0;entryX=0.5;entryY=0;entryDx=0;entryDy=0;strokeColor=#990000;fontSize=13;" edge="1" parent="1" source="XP47d1aaWG6cvXOFJUga-37" target="XP47d1aaWG6cvXOFJUga-47">
          <mxGeometry width="50" height="50" relative="1" as="geometry">
            <mxPoint x="544" y="610" as="sourcePoint" />
            <mxPoint x="594" y="560" as="targetPoint" />
          </mxGeometry>
        </mxCell>
        <mxCell id="XP47d1aaWG6cvXOFJUga-49" value="" style="endArrow=classic;html=1;rounded=0;exitX=0.5;exitY=0;exitDx=0;exitDy=0;entryX=0.5;entryY=1;entryDx=0;entryDy=0;strokeColor=#009900;fontSize=13;" edge="1" parent="1" source="XP47d1aaWG6cvXOFJUga-37" target="XP47d1aaWG6cvXOFJUga-46">
          <mxGeometry width="50" height="50" relative="1" as="geometry">
            <mxPoint x="544" y="610" as="sourcePoint" />
            <mxPoint x="594" y="560" as="targetPoint" />
          </mxGeometry>
        </mxCell>
        <mxCell id="XP47d1aaWG6cvXOFJUga-50" value="" style="endArrow=classic;html=1;rounded=0;exitX=1;exitY=0.5;exitDx=0;exitDy=0;entryX=0;entryY=0.5;entryDx=0;entryDy=0;dashed=1;dashPattern=8 8;fontSize=13;" edge="1" parent="1" source="XP47d1aaWG6cvXOFJUga-36" target="XP47d1aaWG6cvXOFJUga-37">
          <mxGeometry width="50" height="50" relative="1" as="geometry">
            <mxPoint x="662" y="610" as="sourcePoint" />
            <mxPoint x="712" y="560" as="targetPoint" />
          </mxGeometry>
        </mxCell>
        <mxCell id="XP47d1aaWG6cvXOFJUga-54" value="复制" style="edgeLabel;html=1;align=center;verticalAlign=middle;resizable=0;points=[];fontSize=13;" vertex="1" connectable="0" parent="XP47d1aaWG6cvXOFJUga-50">
          <mxGeometry x="-0.08" y="1" relative="1" as="geometry">
            <mxPoint as="offset" />
          </mxGeometry>
        </mxCell>
        <mxCell id="XP47d1aaWG6cvXOFJUga-51" value="T: ToOwned&amp;lt;Owned=U&amp;gt;" style="text;html=1;align=center;verticalAlign=middle;resizable=0;points=[];autosize=1;strokeColor=none;fillColor=none;fontSize=13;" vertex="1" parent="1">
          <mxGeometry x="530" y="302" width="160" height="27" as="geometry" />
        </mxCell>
        <mxCell id="XP47d1aaWG6cvXOFJUga-52" value="Rust广义的借用与克隆" style="text;html=1;strokeColor=none;fillColor=none;align=center;verticalAlign=middle;whiteSpace=wrap;rounded=0;fontSize=16;fontStyle=1" vertex="1" parent="1">
          <mxGeometry x="500" y="85" width="200" height="30" as="geometry" />
        </mxCell>
        <mxCell id="XP47d1aaWG6cvXOFJUga-53" value="" style="shape=curlyBracket;whiteSpace=wrap;html=1;rounded=1;flipH=1;labelPosition=right;verticalLabelPosition=middle;align=left;verticalAlign=middle;fontSize=13;" vertex="1" parent="1">
          <mxGeometry x="520" y="210" width="20" height="300" as="geometry" />
        </mxCell>
      </root>
    </mxGraphModel>
  </diagram>
</mxfile>
